<svg version="1" xmlns="http://www.w3.org/2000/svg" width="933.333" height="933.333" viewBox="0 0 700.000000 700.000000"><path d="M468.9 6.5c-45.6 6.5-86.9 30.8-113.8 67-19.2 25.7-28.5 49.1-33.7 84.5-3.9 26.7 1.5 63.1 13.1 88.5l3.4 7.5-2.7 1.9c-1.5 1-15 10-30.1 20-27.2 18.1-27.4 18.2-31.7 17.5-5.2-.7 2.4-5.5-94.9 59.2C77.4 419.8 15.2 461.8 13.1 464.4c-1.6 2-.5 4 13.7 25.4 14.3 21.4 15.4 22.7 18.4 21.1 6-3.2 187.5-124.1 222.8-148.4 4.1-2.8 13.2-9 20.1-13.8 12.7-8.7 13.9-9.9 13.9-14.1 0-1.3 1.2-3.1 2.8-4.2 6.3-4.7 55.1-37.4 56.5-38 1-.3 4.1 2 8.9 6.8 22.3 22.5 52.5 39.3 81.8 45.6 23.8 5.2 26.6 5.5 45.5 4.9 25.2-.8 41.6-4.2 63-13.2 37.5-15.7 69.6-46.1 87.5-83 19.4-39.9 22.6-87.2 8.9-129.5-4-12.3-13.2-31.3-20.2-41.7-26-39-63-63.8-109.7-73.8-15.5-3.3-42.6-4.3-58.1-2zm35.7 8.5c42 3.8 77.9 20.8 105.9 50.2 29 30.4 44.6 69.3 44.6 111.1 0 63-34.2 119-89.6 146.6-24.1 12.1-46.1 17.2-73.8 17.2-61.5.1-117.4-34.5-145-89.7-6.6-13.3-11-25.9-14.4-41.4-1.9-9-3.2-33.2-2.2-44.3 3.2-37.7 18.8-72.6 44.9-100 26.8-28.2 64.1-46.2 103-49.6 13.2-1.1 15.1-1.2 26.6-.1zM696 228.9c0 .5.6 1.2 1.3 1.5 1 .5 1 .7 0 1.2-2 .9-1.5 2.4.7 2.4 1.6 0 2-.7 2-3s-.4-3-2-3c-1.1 0-2 .4-2 .9zM690 241c0 2.9.1 3 5 3s5-.1 5-3-.1-3-5-3-5 .1-5 3z"/><path d="M689.5 247.5c-.5.2-2.7.6-4.7 1-3.6.6-6.8 2.7-6.8 4.6 0 .5 3.6.9 8 .9 6.6 0 7.8.2 7.4 1.5-.4 1-2 1.5-5.1 1.5-4.6 0-13.2 1.8-14.6 3-.4.4-.5 1.4-.1 2.3.5 1.3 1.9 1.7 6.5 1.7s5.9.3 5.9 1.5c0 1.1-1.1 1.5-4 1.5-6.2 0-14 2-14 3.6 0 .8-.6 1.4-1.2 1.5-2.6.1 4.8 2.8 8 2.9 6.5 0 3 1.7-4.9 2.3-7.3.5-8.4.8-11 3.5-3.4 3.5-2.6 4.2 5.2 4.2 2.7 0 4.9.4 4.9 1s-3 1-6.9 1c-3.8 0-8.1.4-9.5 1-2.9 1.1-7 4.9-6.2 5.7.3.4 4.2.8 8.6 1.1 4.5.3 7.8.7 7.5 1.1-.4.3-5.5 1.1-11.5 1.7-11.7 1.1-15.1 2.7-12.1 5.4.9.9 4.2 1.6 8.8 1.9 4 .2 7.3.7 7.3 1.2s-.6.9-1.2.9c-.7.1-5.8.5-11.2 1-9.7.8-12 1.8-10.9 4.6.3.8-.6 1.4-2.4 1.7-1.5.2 1.1.5 6 .6 4.8 0 8.7.5 8.7.9 0 .5-4.3 1.3-9.5 1.9-8.6.9-9.8 1.3-12.2 3.9l-2.7 2.9 6.2.3c3.4.2 6.2.7 6.2 1.1 0 .5-3.3 1.1-7.2 1.5-5.7.6-8.2 1.3-11.3 3.5-2.2 1.6-4.9 3.1-6 3.4-1.1.2 2.7.5 8.4.6 9.1.1 10.2.3 9.1 1.6-.9 1.1-3.2 1.5-8.1 1.5-3.9 0-6.9.4-6.9 1 0 .5-.5 1-1.1 1-.7 0-1.9.9-2.8 1.9-1 1.1-3.4 2.1-5.7 2.4-2.1.2.2.4 5.3.5 7.8.2 9.1.4 8.7 1.7-.5 1.1-2.4 1.5-8.3 1.5-7.8.1-11.1 1.3-11.1 4.3 0 .8-.8 1.8-1.7 2-1 .3 2.2.5 7.1.6 7.7.1 8.7.3 7.6 1.6-.9 1.1-3.3 1.5-8.4 1.5-6.4 0-7.6.3-10.5 2.7-1.8 1.6-4.3 3.1-5.5 3.5-1.1.3 1.4.6 5.7.7 6.8.1 7.7.3 6.4 1.5-.8.8-3.2 1.6-5.3 1.8l-3.9.3 5 2.7c5.8 3.2 5.3 3.8-.6.7-3.8-1.9-6.9-2-6.9-.2 0 .5 2.1 1.7 4.8 2.9l4.7 2.1 3.8-2c2.1-1.1 5.8-2.2 8.2-2.5 13.2-1.4 15.8 6.7 5.7 17.9-8 8.9-19.6 12.5-25.5 7.9-1.6-1.3-2.8-1.6-3.2-1-.3.5-4.1 1-8.4 1h-7.9l-4 5.2c-7.6 9.9-14.7 18.1-16.4 19.2-1.3.8-2.1.7-2.9-.1-1-1-.4-2.3 2.7-6 7.5-9.2 7.7-8.3-1.5-8.3-5.2 0-8 .4-7.6 1 .3.6-.4 1.4-1.7 1.9-1.3.5-3 1.6-3.7 2.5-1.2 1.4-.7 1.6 5.2 1.6 5.5 0 6.5.3 6.1 1.5-.5 1.2-2.8 1.5-11.8 1.6-9.6.1-10.6.2-7.1 1.1 5.1 1.4 5.2 1.4 3 3.8-1.8 2-1.7 2 1.3 2 2.4 0 3 .4 2.6 1.5-.4 1-2 1.5-4.9 1.5-3.8 0-4.6.4-7.1 3.7-1.6 2.1-2.8 4.4-2.6 5 .2.7-.5 1.3-1.5 1.3s-3.3 1.8-5.1 4l-3.3 4h2.6c1.5 0 2.4.4 2 1-.3.5-3.7 1-7.5 1s-7.2.4-7.5 1c-.4.6 1.8 1 5.9 1 3.6 0 6.6.3 6.6.6 0 .9-4.3 6.8-5.2 7.2-.4.2-2.6 2.6-4.8 5.5-8.8 10.9-12 13.9-14.6 13.3-2.4-.6-2.1-1 5.1-9.4l7.5-8.7-6.5-.3c-6.4-.3-6.7-.2-10.1 3.2-1.8 1.8-3.4 3.7-3.4 4 0 .3 2.3.6 5 .6 2.8 0 5 .4 5 1s-3.1 1-7.4 1c-7.2 0-7.5.1-11.2 3.7l-3.7 3.8 6.4.5c4.9.4 5.8.7 3.9 1.2-1.4.4-4.8.8-7.5.8-4.6 0-5.5.4-9 4-2.9 3-3.5 4-2.1 4 .9 0 1.4.4 1.1 1-.3.5-1.5 1-2.5 1-1.9 0-8.7 6.5-8.3 7.8.5 1.8-5.6 3.5-11.8 3.3-5.8-.2-7 .1-9.7 2.4-1.8 1.5-3.2 3.1-3.2 3.6 0 1.5 9 1 10.6-.6 1-1 3.4-1.5 6.7-1.5 9.3 0 9.2.6-2.8 13.7-6 6.5-11.4 12.1-12 12.5-.6.4-2.1.4-3.3.1-2-.5-1.3-1.6 7.3-10.8 5.2-5.7 9.5-10.6 9.5-11 0-.4-1.7-.4-3.7 0-2.1.3-6.3.9-9.3 1.2-4.4.4-6.2 1.2-9.2 3.9L411 516h5.1c4.3 0 4.8.2 3.6 1.4-.8.8-4.2 1.6-8.3 1.8-6.2.4-16.6 2.2-20.4 3.6-.8.3.3.8 2.5 1.2 4.9.9 9.8 2.8 7.3 2.9-1 .1-1.8.5-1.8 1s-.6 1.1-1.4 1.3c-.8.2-6.5 5.2-12.6 11.1-10.1 9.8-11.4 10.8-13.8 10.2-1.5-.4-5.5-.9-8.9-1.2l-6.3-.5v3.6c0 3.4.2 3.6 3.5 3.6 1.9 0 3.5.4 3.5.9 0 1-3.5 2.1-6.9 2.1-1.5 0-4 1.7-6.9 4.6-5.3 5.5-11.7 8.6-19.2 9.4l-5.5.5 8.8 2.8c9.7 3.1 11.3 4.5 2.6 2.3-3.3-.9-5.8-1.1-6.3-.5-1.2 1.1-1.2 1.2 5.9 3.4 3.3 1 9.7 2.2 14.2 2.5 12.5.9 15.4 5.1 9.6 13.8-6.6 9.7-19.2 16.1-28.6 14.5-5.3-.8-9.1-4.6-8.4-8.3l.6-2.8-8.2-.9c-6.3-.7-8.6-.6-9.8.4-2.1 1.7-5.4 1.6-7.3-.2-.9-.9-3.3-1.5-6.4-1.5h-5l.5 3.9c.5 3.7.2 4.3-4.8 9.6-10.1 10.7-24 14.6-32.3 9-3-2-4.9-2.5-9.9-2.5-6.7 0-7.6.4-9.5 3.7-1.6 3-1.5 3.3.9 3.3 1.8 0 1.9.2.5 1.5-.8.8-2.4 1.5-3.5 1.5s-4.3 1.7-7.1 3.7l-5 3.8 2.7.7c2.4.5 2.2.6-1.2.6-2.2.1-5.8.5-8 1.1-2.2.6-9.6 1.1-16.5 1.1-12.3.1-12.5.1-16 3l-3.5 2.9 7.5.2c31 .4 28.7.2 31.6 3 3.7 3.7 2.6 7.4-3.9 13.9-5.8 5.6-14.1 10.1-20.2 10.8-5.7.6-12.2-1.4-14.1-4.4-2.7-4 .2-10.1 7.2-15.4 3.1-2.3 5.3-4.4 5-4.7-.2-.3-4.7-.2-10 .2-8.4.6-9.8 1-12.8 3.6l-3.3 2.8 3.2.1c1.7 0 3.9.3 4.7.6 1.5.6 1.5.8-.1 2-1.2.9-4.8 1.3-10.5 1.4h-8.6l2.9 2.9c1.6 1.6 2.9 3.8 2.9 4.9 0 4.8-9.5 13.6-19 17.5-9.1 3.8-18.2 2.8-23.1-2.4-2.5-2.7-3.2-2.9-9.6-2.8l-6.8.1 4.8.8c2.7.5 5.4 1.4 6.2 2 1.6 1.4.3 2.6-10.4 10.1l-6.4 4.4 9.8.3c7.2.2 11.1-.2 14.9-1.5 6.5-2.2 14.2-2.2 18.5 0 1.9.9 5.3 1.7 7.7 1.7 3.8 0 5.3-.9 16.9-10.3l12.7-10.2-4.7-.5c-4.3-.5-4.5-.6-3.2-2.3 1.1-1.7 2.2-1.8 8-1.2 11.7 1.3 11.6 1.7-3 13.5l-12.8 10.5 9.3.3 9.3.3 4.7-4c6.7-5.7 14.6-9.1 21-9.1 9.9 0 16 4.7 13.4 10.5L212 698h7.5c6.6 0 7.4-.2 8-2.1.7-2 1.3-2.1 10-1.7 9.4.3 12.2 1.1 9.5 2.8-.9.6 30 .9 81.5.9 45.7-.1 81.2-.5 79.1-.9-4.5-.8-8.6-4.9-8.6-8.3 0-7.3 10.9-20.5 20.8-25.4 10.3-5 24-4.2 27.2 1.6 1.5 3 1.2 5.2-1.5 10.7-5.1 10.3-17.1 19.6-27.4 21.4-3 .5 2.9.8 16.4.9l21 .1 9.7-15.2c5.3-8.4 9.6-15.4 9.4-15.5-.1-.1-2.6.4-5.6 1.2-3 .8-5.6 1.5-5.8 1.5-.2 0-.2-1 0-2.2.2-1.8 1.5-2.5 7.3-4 3.9-1 9.1-1.7 11.6-1.5l4.6.2-10.8 17c-5.9 9.4-10.8 17.3-10.8 17.7-.1.5 6.3.8 14.1.8 11 0 13.9-.3 13-1.2-3.6-3.6.7-15.3 8.6-23.3 11.8-12 34.5-15.6 38.2-6 2.3 6.1-4 19-12.9 26.3l-5.2 4.2 16.7-.2 16.8-.3 7.8-16.5c4.2-9.1 7.8-16.8 7.8-17.2 0-.4-2.5.2-5.7 1.3-7.1 2.4-7.5 2.4-7.1-.3.2-1.7 1.9-2.7 8.3-4.8 9.6-3.2 16.5-4.5 16.5-3 0 1.2-8.3 19.7-13.5 30-1.8 3.6-3.6 7.5-3.9 8.7l-.7 2.3H700v-78.4l-3.7 3.6c-2.1 2.1-6.5 4.9-9.8 6.5-4.9 2.3-7.4 2.8-13.8 2.8-7.4 0-8-.2-10.3-2.8-4.8-5.6-2.1-18.1 6.1-27.4 5.9-6.8 16.6-12.2 25.4-13l6.1-.6-.1-12.1v-12.1l-2 5c-1.1 2.7-2.5 5.5-3.1 6.2-1.2 1.5-6.4 1.7-7.3.4-.4-.8 5.7-18 9.9-27.4 2.8-6.3 2.8-6.9.3-6.1-1.2.3-3.4 1.3-4.9 2-3.7 1.9-5.8 1.7-5.8-.4 0-1.4 1.7-2.6 6.3-4.3l6.2-2.5.3-7.7.3-7.7h-3.4c-1.9 0-4.5-.9-5.8-1.9-5.1-4.1-1.9-17.5 6-25.8l3.1-3.2v-39.3l-2.7 3.4c-5.6 6.6-11 10-18.8 11.8-8 1.8-15.5-1.7-15.5-7.2 0-4 4.4-13 8.6-17.7 6.2-6.8 13.9-10.6 22.1-10.6h6.3l-.1-13.5c0-10.5-.3-13-1.1-11.3-.8 1.7-2 2.3-4.5 2.3-1.8 0-3.3-.3-3.3-.8 0-.4 2-4.2 4.5-8.6 3.6-6.3 4.5-8.8 4.5-12.7 0-3.7-.4-4.9-1.5-4.9-.8 0-1.5-.9-1.5-2s.7-2 1.5-2c1.4 0 1.5-7.3 1.3-65.3l-.3-65.2-4.5-.2c-2.5-.1-4.9 0-5.5.2zm-44.3 126.3c1.4.6.1 3.1-8.3 15.2-5.5 8-10.3 14.8-10.7 15.2-.4.4-2 .4-3.5 0l-2.7-.7 8.4-12c4.7-6.6 8.6-12.3 8.6-12.7 0-.3-1.8-.4-4-.1-2.5.4-4 .2-4-.5 0-1.6 1.9-2.6 7.5-3.8 6-1.4 6.5-1.4 8.7-.6zm34.8 3.5c4.1 2.1 4.7 5.6 1.8 11.9-3.4 7.4-8.8 13.2-15.4 16.4-4.5 2.2-6.4 2.6-11.1 2.2-6.4-.6-8.3-2.3-8.3-7.5 0-13.7 21.6-28.7 33-23zm-100.3 22.3c-.3.3-1.2.4-1.9.1-.8-.3-.5-.6.6-.6 1.1-.1 1.7.2 1.3.5zm14.3 2.7c1.4.7 2.6 2 2.8 2.8.4 2.1-2.9 3.4-3.9 1.7-.5-.8-.2-1.5.9-1.9 1.1-.4.3-.8-2.3-1.1-2.2-.3-5.4 0-7.1.7-4 1.6-10.1 7.1-12 10.6-1 2-2.2 2.9-3.9 2.9-1.4 0-2.5-.4-2.5-.9s2.1-3.3 4.7-6.1c7.4-8.3 17.1-11.9 23.3-8.7zm22.1 3.9c-4.5.8-6.5.3-4.3-1.1.6-.4 2.9-.5 4.9-.2l3.8.5-4.4.8zM590 417c0 .5-.5 1-1.1 1-.5 0-.7-.5-.4-1 .3-.6.8-1 1.1-1 .2 0 .4.4.4 1zm-20.7 3.7c-.3 1-1 2.3-1.5 2.9-.9 1.3 3.2 2.4 9.1 2.4 2.7 0 3.2.3 2.1 1-.8.5-3.4 1-5.7 1-5 0-8.3-2.6-8.3-6.5 0-2 .5-2.5 2.5-2.5 1.9 0 2.3.4 1.8 1.7zm-13.1 6.5c4.4 2.2 2.7 9.5-3.8 16.7-7.5 8.4-18.5 12.2-25.2 8.7-6-3.1-5.1-9.4 2.2-17.4 7.8-8.5 19.3-11.9 26.8-8zm31.5 1.6c.9.6-2.1 5.3-9.9 15.7-6.1 8.3-11.1 15.1-11.2 15.2-.5.8-5.6-1.2-5.3-2.1.3-.7 4.4-6.3 9.1-12.5 4.7-6.2 8.6-11.6 8.6-11.8 0-.3-1.8-.3-4 .1-3.1.5-4 .3-4-.8 0-1.9 1.1-2.5 6.2-3.5 5.7-1.2 9-1.2 10.5-.3zm72.3 2.8c0 1.9-20.6 34.4-21.9 34.6-.9.2-2.6.2-3.7 0-1.9-.3-1.5-1.5 5.6-13 11.4-18.8 10.9-17.3 5-15.7-5 1.3-6.2.7-4.2-2.1 1.6-2.3 19.2-5.8 19.2-3.8zm-35.3 2.7c2.1 2 2.1 7.3 0 11.4-2.8 5.3-10.6 13.1-15.9 15.7-10.5 5.2-20.8 2.6-20.8-5.3 0-6.8 8.3-17 17.6-21.7 4-2 6.1-2.4 11.2-2.1 4.2.2 6.8.9 7.9 2zM536 457c1.1.7.2 1-3.3 1-2.7 0-6.4.8-8.5 1.9-4.6 2.3-10.7 8.4-12.4 12.2-.8 1.7-2.1 2.9-3.3 3-1.7.1-1.7.2-.2.6 2.6.7 2 2.3-.9 2.3-2.2 0-2.4-.3-1.8-2.3 3.4-11 13.9-19.7 23.9-19.7 2.8 0 5.7.5 6.5 1zm-43.6 23c1.5.5 3.1 2.1 3.8 3.5 1.6 3.5-1.2 9.3-7.2 14.9-6.6 6.2-12 8.7-18.7 8.7-7.4 0-10.3-1.9-10.3-7 0-6.6 9.1-16.6 17.9-19.7 4.3-1.6 11-1.8 14.5-.4zm34.9 4.4c-.4.6-5.8 7.5-12.1 15.3-8.8 11.1-11.9 14.3-13.7 14.3-1.3 0-2.7-.4-3-1-.3-.5 4-6.6 9.6-13.6l10.1-12.6-4.6.7c-2.5.4-4.6.3-4.6-.1.1-2.3 2-3.3 7.5-4.1 7.2-1 11.8-.6 10.8 1.1zm36.5 6.2c3 3.4 2.5 6.7-1.9 13.6-6.3 9.7-15.3 15.2-25.1 15.3-5.6 0-7.1-.4-8.9-2.2-7.3-7.3 6-25.4 21.6-29.4 5.7-1.5 11.7-.4 14.3 2.7zm117.2-3.1c0 2-18.2 36.4-19.5 36.9-2 .7-6.5.8-6.5.1 0-.3 3.6-7.7 8-16.4l7.9-16-5.5 1.9-5.5 1.9.3-2.1c.2-1.6 1.8-2.7 6.8-4.4 5.9-2 14-3.1 14-1.9zm-81.3 1.9c-.3.8-5.4 8.9-11.4 18-10.5 16.1-10.8 16.4-13.8 15.9-1.6-.3-3.1-.7-3.3-.9-.2-.1 3.6-6.2 8.5-13.6 4.9-7.3 9.3-13.9 9.7-14.7.8-1.3-1.8-1.1-7.6.5-1.3.4-1.8 0-1.8-1.5 0-2 1.1-2.5 9.5-4.4 1.1-.3 4-.5 6.4-.6 3.4-.1 4.2.2 3.8 1.3zm42.3.9c4.1 2.1 4.8 7.3 1.8 13.8-6.7 14.6-22.7 24.2-34.8 20.9-17.4-4.7 4.4-36 25-36 3 0 6.6.6 8 1.3zm-175.5 20.6c-.9 1.6-6.7 4.1-9.4 4.1-3.3 0-1.8-1.5 3.4-3.4 4.7-1.7 6.8-2 6-.7zm-12.4 9c-4.6 4.3-10.7 6.8-8.1 3.4 4.2-5.5 6.5-7.3 9.4-7.3h2.9l-4.2 3.9zm-5.3 7.3c-.3.7-1.7 1.4-3.1 1.6-2.1.3-2.6 0-2.1-1.2.7-1.9 5.8-2.2 5.2-.4zm-20.4 6.9c2.9 2.3 3.3 5.6 1.2 9.7-2.1 4-11 12-15.9 14.2-6.8 3.2-17.4 2.4-19.9-1.4-3.8-5.6 4.6-17.4 16.1-22.8 5.4-2.5 15.1-2.3 18.5.3zm34.5 3.5c.1.1-5.4 7-12.5 15.3-10.8 12.7-13.2 15.1-15.5 15.1-1.5 0-3-.4-3.3-.8-.2-.4 4.2-6.3 10-12.9 5.7-6.7 10.4-12.5 10.4-12.9 0-.3-2.1-.3-4.6.1-4.4.6-4.5.6-3.4-1.4 1.1-2.1 2.8-2.8 9-3.4 3.3-.4 9.1.1 9.9.9zm33.6 5.8c6.8 2.9 6.7 9.2-.2 17.7-10 12.2-24.2 17.3-33 11.9-5.9-3.5-4.4-10.5 3.9-19.6 8.8-9.5 20.7-13.6 29.3-10zm170.4 1.1c3.2 1.6 4.1 3.3 4.1 7.8 0 6.9-9.5 22-14.6 23.3-1.3.3-2.4 1-2.4 1.5 0 1.4-5.2 3.6-11.7 4.9-10.2 2-16.3-1.3-16.3-9 0-7.8 9.1-20.9 17.5-25.2 9.1-4.8 18.2-6 23.4-3.3zm-130.3 1c-.3.8-5.7 8.9-12.1 18-11.3 16-11.7 16.5-15.2 16.5-2.7 0-3.4-.3-2.9-1.5.3-.8 4.8-7.6 10.1-14.9 5.2-7.4 9.5-13.7 9.5-14.1 0-.3-.8-.4-1.7-.1-6.7 1.8-8.3 1.8-8.3-.3 0-1.3.8-2.3 2.3-2.6 8.1-1.9 10.7-2.3 14.6-2.4 3.4-.1 4.2.2 3.7 1.4zm82.7.2c.4.7-14.9 29.8-18.9 36-1.1 1.7-2.4 2.3-5 2.3-4.4 0-4.8 1.2 5.5-17.6 4.5-8.1 8.1-14.8 8.1-15 0-.2-2.1.3-4.7 1.1-6.1 1.9-6.3 1.9-6.3-.4 0-1.6 1.6-2.5 7.8-4.4 8-2.6 12.7-3.3 13.5-2zm-43.5.9c10.1 2 9.3 13.1-1.7 25.6-13.6 15.3-40 14.6-35.1-.9 4.9-15.6 22.7-27.5 36.8-24.7zm-195.4 10.2c.2.4-4.9 6.4-11.5 13.2-9.9 10.4-12.4 12.5-14.9 12.5-2.8.1-2.9 0-1.3-2 1-1.1 6-6.4 11.2-11.8l9.6-9.7h-4.3c-3.9 0-5.1-.8-3.5-2.3.9-1 14.1-.9 14.7.1zm16.6 10.7c-1.4.8-3.8 1.4-5.5 1.4-2.9 0-2.9 0-1.1-1.4 1.1-.8 3.6-1.5 5.5-1.5l3.6.1-2.5 1.4zm-12.2 9.7c-.5 1.5-5.8 2.4-5.8 1 0-1.5 1.2-2.2 3.8-2.2 1.4 0 2.2.5 2 1.2zm-35.1 4.4c-.3.3-1.2.4-1.9.1-.8-.3-.5-.6.6-.6 1.1-.1 1.7.2 1.3.5zm44 9.2c.9.5-3.1 5.6-12.5 15.9-12.9 14.3-13.9 15.1-16.7 14.6-1.6-.3-3.2-.7-3.4-.9-.2-.2 4-5.2 9.5-11.1 5.4-6 10.7-11.9 11.8-13.2l2.1-2.4-4.7.7c-4 .6-4.8.5-4.8-.9 0-.8 1-2 2.3-2.5 2.7-1.1 14.8-1.3 16.4-.2zm254.3 6.1c0 .5-3.9 9.9-8.6 20.9l-8.5 20-4.1.6c-2.2.4-4.3.5-4.5.2-.3-.3 2.9-8.3 7-17.8s7.3-17.5 7.2-17.6c-.2-.2-2.9.5-6 1.7-6.9 2.6-6.7 2.6-6.3-.1.6-3.9 23.8-11.6 23.8-7.9zm-218.7 1.3c2.9 1.5 4.6 3.8 4.7 6.1.1 5.8-9.8 17.8-18.2 22-12.3 6.2-25.8 3.6-25.8-4.9 0-6.2 12.6-19.5 21.7-22.9 4.7-1.7 14.7-1.9 17.6-.3zm40.4 3.2c-.3.8-6.1 8.8-12.9 18-11.4 15.4-12.5 16.6-15.5 16.6-1.7 0-3.4-.3-3.7-.8-.2-.4 3.6-6.1 8.6-12.7 4.9-6.6 9.9-13.2 11-14.8l2-2.7-5.6.6c-5.2.6-5.5.6-4.9-1.4.6-2.3 6.7-3.9 16.2-4.1 4.1-.1 5.2.2 4.8 1.3zm44.1 4.3c10.9 8.1-8.1 32.4-27.2 34.8-17.4 2.2-21-9.6-7.6-24.8 9.8-11 26.8-16 34.8-10zm90.7-.2c7.4 7.3-3.7 27.1-19 34.1-13.9 6.4-27.2 1.7-25-8.8 3.4-15.6 18.5-27.7 34.8-27.8 5.9 0 7.1.3 9.2 2.5zm-49.5-1.1c0 .7-20.2 35.1-21.6 36.7-.9 1-2.5 1.4-5.1 1.1-3.2-.4-3.4-.6-2-1.7.9-.6 1.4-1.4 1.1-1.7-.3-.3 1.9-4.6 4.9-9.4 2.9-4.9 6.8-11.4 8.5-14.6l3.2-5.6-4.6 1.4c-5.9 1.8-7.4 1.8-7.4 0 0-1.9 1.3-2.7 8.5-4.7 5.4-1.6 14.5-2.5 14.5-1.5zm-244.1 4.5c1.1.7-.9 3-8 9.8-5.2 5-11 10.4-13 12.1-3.5 3.1-6.9 4.2-6.9 2.3 0-.5 4.8-5.7 10.8-11.5l10.7-10.6h-4.2c-4 0-5.2-.8-3.6-2.3.9-1 12.6-.8 14.2.2zm-57.1 16.7c1.7.3 3.2.8 3.2 1.3 0 1.5-27.9 25.1-29.7 25.1-1 0-2.5-.5-3.3-1-1.8-1.1-2.9.1 11.8-12.6l10.4-8.9-3.4-.8c-4.1-1.1-4.4-1.3-2.9-3.1 1.1-1.3 5.2-1.3 13.9 0zM315 628c0 .5-.9 1-2.1 1-1.1 0-1.7-.5-1.4-1 .3-.6 1.3-1 2.1-1s1.4.4 1.4 1zm-30.6 8c3.6 1.3 5.8 5.2 5 8.6-1 4-10.9 13.5-16.8 16.3-9.7 4.5-20.7 3.5-23.4-2.2-4-8.3 13.8-23.7 27.5-23.7 2.8 0 6.3.4 7.7 1zm38.3 7.4c.3.3-5.8 7.3-13.7 15.6-14.2 15-16.2 16.4-20 14-1.2-.8 1-3.4 11-13.5l12.5-12.5h-5.3c-4.9 0-5.2-.1-4.2-1.9.6-1.3 2.4-2.1 4.8-2.4 4.3-.6 14.2-.1 14.9.7zm361 1.8c-.5 2.6-4.4 15.7-8.8 30l-2.9 9.6-4.1.7c-2.2.4-4.3.5-4.6.2-.3-.3 1.8-8.1 4.6-17.3 2.8-9.2 5-16.9 4.8-17.1-.2-.2-2.9.8-6.1 2.2-6.8 3-6.6 3-6.6.4 0-1.6 1.7-2.8 7.8-5.6 7.2-3.4 11.8-5 15.1-5.2.9-.1 1.2.6.8 2.1zm-325.5 6.9c1 .5 2.5 2.1 3.4 3.5 1.5 2.3 1.5 2.8 0 6.8-2.1 5.3-12.7 15.9-18.8 18.6-9.7 4.2-20 3.3-24.1-2.2-1.9-2.6-1.9-2.9-.3-7.1 3.3-8.7 13.3-17.4 23.3-20.3 5-1.4 13.2-1 16.5.7zm280.7.4c11.6 5.9.4 31-17.4 39.1-10.5 4.9-22 4.8-26.2 0-3.4-4-3.1-9.6 1.1-18.1 3.7-7.8 10.9-15.3 17.2-18.1 10-4.4 20.2-5.6 25.3-2.9zm-239.5 3.3c.3.5-.3 2-1.4 3.3-25.2 32-25.7 32.5-29.4 32.1-2-.2-3.6-.7-3.6-1.1 0-.3 5.2-7 11.5-14.8 6.3-7.8 11.5-14.5 11.5-14.9 0-.3-1.6-.4-3.6-.1-4.1.7-6.4 0-6.4-1.9 0-.7 1.6-1.6 3.8-1.9 2-.4 4.4-.8 5.2-1 3.3-.6 11.9-.4 12.4.3zm-161.5 4.1c2 1.3-.3 4.1-3.3 4.1-1.1 0-3 .7-4 1.5-1.9 1.5-1.9 1.5.3 1.5 2 0 2.1.2 1.1 1.5-.7.8-2.3 1.5-3.6 1.5-1.2 0-2.9.6-3.6 1.3-.7.7-2.2 1.6-3.3 2-1.1.4.9-1.9 4.5-5.2l6.5-6-4.2-.1c-4 0-5.2-.8-3.6-2.3 1-1 11.6-.8 13.2.2zM221 678.5c-1.3 1.6-7 2.1-7 .7 0-1.6 1.3-2.2 4.8-2.2 2.9 0 3.3.2 2.2 1.5z"/><path d="M667.3 381c-6.2 2.6-15.1 15.7-13.9 20.5.5 2.1 1.2 2.5 4.2 2.5 1.9 0 4.8-.7 6.3-1.4 6-3.2 13.5-14.4 12.9-19.4-.3-2.3-.8-2.7-3.8-2.9-1.9-.1-4.5.2-5.7.7zM540.4 432.2c-5.1 3.4-11.7 12.1-11.2 14.6s3.3 3.5 7.2 2.8c2.6-.5 5.2-2.3 9-6 6.2-6.3 8.3-10.8 6-13.1-2.4-2.3-5.7-1.8-11 1.7zM611.4 436.1c-7.9 2.3-19 17-16.4 21.8 1.7 3.2 7.7 2.8 12.6-.7 4.3-3.2 10.9-12.2 11.9-16.3.5-2.1.1-3-1.6-4.3-1.3-.9-2.6-1.6-2.9-1.5-.3 0-1.9.5-3.6 1zM477.5 485.8c-9 6.5-13.5 14.2-9.9 16.9 4 2.9 14-2.3 19.4-10.3 4.3-6.1 3.8-8.8-1.5-9.2-3.2-.2-4.9.3-8 2.6zM546 493.8c-9.1 5.8-16 17.1-12.5 20.6 5.1 5 18-3.1 23.8-15 2.6-5.4 1.7-7.8-3.4-8.2-2.4-.2-4.7.6-7.9 2.6zM627 494.1c-8.2 3.3-18.8 19.7-16 24.9 1.4 2.7 8.3 2.7 12.6.1 6.1-3.7 14.3-16.2 14.4-21.8 0-3.8-5.4-5.4-11-3.2zM417 535.9c-6.3 1.9-11.9 6.4-16.3 13.1-4 5.8.4 9.4 7.9 6.5 4.6-1.8 12.5-8.8 14.8-13.4 1.5-2.8 1.3-6.1-.4-6.1-.5 0-1.4-.2-2.2-.4-.7-.2-2.4-.1-3.8.3zM483 547.6c-7.6 3.3-16.5 14.6-15.8 20.2.2 2.2.9 2.8 3.3 3 5.1.6 10-1.6 15-6.7 6.1-6.3 8.5-10 8.5-13.3 0-4.6-4.6-6-11-3.2zM649.2 549.7c-6 2.9-12.5 12.1-14.3 20.3-2.6 11.7 12.8 10.2 21.4-2 4.6-6.6 7-14.1 5.7-17.5-.8-2.1-1.6-2.5-5.2-2.5-2.4 0-5.8.8-7.6 1.7zM566.5 551c-4.7 1-6.9 2.5-12 8.2-9.9 11-11 19.8-2.4 19.8 7 0 15.8-6.9 20.4-16 4.6-9.1 2.2-13.8-6-12zM413 603c-9.7 5.1-18.2 17.7-14.5 21.4 5.5 5.5 21.9-4.6 26.9-16.5 2-4.9.7-6.9-4.7-6.9-2.3.1-5.8.9-7.7 2zM495.5 609.6c-11 5.6-20.9 23.8-14.2 26 5.9 2 13.3-1.1 19.5-8.1 6.8-7.8 9.8-15.5 7-18.3-1.7-1.7-8.7-1.5-12.3.4zM587.4 608.1c-4.9 1.4-12 8.3-15.3 15.1-3.5 6.9-3.9 10.9-1.4 13.3 2.3 2.3 9.5 1.3 14.4-2 6.5-4.3 12.9-15.2 12.9-22 0-2.9-.5-3.7-2.6-4.5-2.9-1.2-3.8-1.1-8 .1zM269.3 641.1c-5.7 2.8-14.5 12.3-14.1 15.1.8 5.8 10.5 4.5 18.9-2.5 6.6-5.4 9.9-10.8 8-13.1-1.9-2.2-7.7-2-12.8.5zM344.8 655c-6.7 2-18.1 12.3-19.4 17.5-2.2 8.8 8.1 9.7 18.4 1.6 5.6-4.5 11.2-12.3 11.2-15.8 0-3.6-4.5-5-10.2-3.3zM619.5 657.9c-8 3.6-16.5 16.3-16.5 24.8 0 5.3 2 7.3 7.1 7.3 10.5 0 21.7-12.3 23.6-25.6 1-7.7-5.3-10.6-14.2-6.5zM582 374c0 .5.7 1 1.6 1 .8 0 1.3.4.9.9-.3.5.5 1.7 1.7 2.7 2 1.4 2 1.5.3.9-2.9-1.2-8.5-1.8-8.5-1.1 0 .4 1.6 1.4 3.6 2.2 2 .8 3.4 1.7 3.1 2-.3.3-2-.2-3.7-1.1-2.3-1.2-3.5-1.4-4.3-.6-.7.7.4 1.7 3.7 3.2 3.5 1.5 5.1 1.8 5.9 1 .6-.6.8-1.1.3-1.1-.4 0 .7-1.3 2.5-3 1.8-1.6 3.1-3.1 2.8-3.2-1.9-1.2-8.9-4.8-9.3-4.8-.4 0-.6.4-.6 1zM571.8 374.7c.6.2 1.8.2 2.5 0 .6-.3.1-.5-1.3-.5-1.4 0-1.9.2-1.2.5zM604.7 375.7c-.9.2-1.5.9-1.2 1.4.3.5-.1.6-.9.3-1.9-.7-9.9 6.5-9.2 8.3.3.8.1 1.1-.4.8-1.3-.8-4.5 5.9-3.7 7.8.7 1.8 6.3 2 9.6.2 2.8-1.4 7.7-6.4 10.4-10.5 1.8-2.6 2.3-8 .8-8-.5 0-1.5-.2-2.3-.4-.7-.2-2.1-.2-3.1.1zM568.8 378.7c.7.3 1.6.2 1.9-.1.4-.3-.2-.6-1.3-.5-1.1 0-1.4.3-.6.6zM566.5 381c.3.5 1 1 1.6 1 .5 0 .9-.5.9-1 0-.6-.7-1-1.6-1-.8 0-1.2.4-.9 1zM563 383c.8.5 2.2 1 3 1 1.3 0 1.3-.1 0-1-.8-.5-2.2-1-3-1-1.3 0-1.3.1 0 1zM573.7 383.7c-.4.3 1 1.5 3 2.5 2.9 1.4 3.2 1.7 1.3 1.4-1.4-.2-3.4-.7-4.5-1.1-1.2-.4-.7.2 1 1.5 2.8 2 2.8 2.1.5 1.4-1.4-.4-3.1-.9-3.7-1.1-.7-.3-1.3-.2-1.3.1 0 .3 1.8 1.3 4 2.2 5.3 2.2 4.6 2.7-.9.8-2.4-.8-4.6-1.2-4.9-.9-.3.3.1.5.9.5 1.2 0 1.2.2 0 .9-1.8 1.1 6.9 4.1 10.1 3.4 1.8-.4 2-.3.8.6-.8.6-1 1.1-.5 1.1 2 0 3.3-1.6 3.6-4.5.2-1.7.7-3.5 1.2-4.2.6-.8-.2-1.6-2.6-2.6-5.4-2.3-7.3-2.8-8-2zM548.3 394.7c.9.2 2.3.2 3 0 .6-.3-.1-.5-1.8-.5-1.6 0-2.2.2-1.2.5zM545.3 398.7c1.5.2 2.7.7 2.7 1.1 0 .7-3.4 3.2-6 4.4-.8.4 1.7.7 5.6.7 5.7.1 7.4-.3 8.7-1.7 2.6-2.8 2.1-3.5-1.9-2.7-3.1.5-3.6.4-3.1-.9s-.2-1.6-4.1-1.5c-2.9.1-3.7.4-1.9.6zM511.8 428.7c.7.3 1.6.2 1.9-.1.4-.3-.2-.6-1.3-.5-1.1 0-1.4.3-.6.6zM686.5 436.4c-7.5 3.3-16 16-15.3 22.8.3 3.2.5 3.3 4.9 3.6 3.9.3 5.2-.2 8.9-3 4.9-3.8 10.8-12.9 11.6-17.9 1-6.1-3.4-8.5-10.1-5.5zM489.8 452.9c-1 1-1.8 2.1-1.8 2.4 0 1.4 9.8.7 10.9-.7 1-1.2.6-1.3-2.9-.9-3.4.5-3.9.3-3.4-1.1.8-2.1-.6-2-2.8.3zM445.2 484.5c-.7.8-.9 1.5-.4 1.5s1.5-.7 2.2-1.5c1.6-1.9-.1-1.9-1.8 0zM435.9 491.9c-1.6 1.6-3.9 3.2-5.2 3.4-1.2.2-.4.5 1.9.6 3.4.1 4.5-.5 7.4-3.4 3.2-3.3 3.3-3.5 1.1-3.5-1.2 0-3.6 1.3-5.2 2.9zM698.3 504.2c-2.1 4.8-2.5 9.2-.9 11.3 2.2 3 2.7 1.5 2.4-6.6-.3-6.6-.4-7.1-1.5-4.7zM402.8 512.9c-.8 1.1-2.9 2.1-4.8 2.4-3.5.4-3.5.4.5.5 2.9.1 4.8-.5 7-2.3 2.8-2.3 2.9-2.4.8-2.5-1.2 0-2.8.9-3.5 1.9zM381 531c-1.1 1.1-2.7 2-3.5 2-.8 0-1.5.4-1.5.9 0 .6-1.5 1.2-3.2 1.4-1.9.2-.7.4 2.8.5 5.7.2 6.2 0 9.4-3.3l3.4-3.5h-2.7c-1.5 0-3.6.9-4.7 2zM369 540.6c-1.3.7-2.9 2-3.5 2.8-.6.8-2.7 1.6-4.6 1.9-1.8.2-.1.4 4 .3 7.1-.1 7.5-.2 9.9-3.4l2.5-3.2-2.9.1c-1.6.1-4 .7-5.4 1.5zM353.8 545.7c.7.3 1.6.2 1.9-.1.4-.3-.2-.6-1.3-.5-1.1 0-1.4.3-.6.6zM346.5 554l-3 2h2.6c1.6 0 3-.7 3.3-1.6.9-2.5.3-2.5-2.9-.4zM329.8 559.7c2.4.5 3.1 2.3.9 2.3-.8 0-2.2.9-3.2 2-1.8 2-1.7 2 4.9 2 6.2 0 6.9-.2 10.4-3.5l3.7-3.4-9.5.1c-5.2 0-8.5.3-7.2.5zM315 569.4c0 .2.9.6 2 .9 1.1.3 1.8.1 1.4-.4-.5-.9-3.4-1.3-3.4-.5zM327.8 569.7c.6.2 1.8.2 2.5 0 .6-.3.1-.5-1.3-.5-1.4 0-1.9.2-1.2.5zM311.9 573.3c.5.5 3.4 1.2 6.3 1.4 4.3.3 4.8.1 2.9-.7-3.2-1.4-10.4-1.9-9.2-.7zM307.5 581c5.5 2 8.5 2.4 8.5 1.2 0-.9-9-3.3-11.8-3.1-.9 0 .6.9 3.3 1.9zM315.8 579.7c.6.2 1.8.2 2.5 0 .6-.3.1-.5-1.3-.5-1.4 0-1.9.2-1.2.5zM325.7 580.6c-1.5 1.5-.5 2.2 5.1 3.8 6.5 1.8 9.8 2 10.6.7.3-.5-2.3-1.6-5.8-2.5-3.4-.8-6.9-1.8-7.7-2.1-.8-.3-1.8-.2-2.2.1zM297 581.4c0 .5 13.4 4.6 15.1 4.6 2.9 0-.9-1.9-6.7-3.4-6.3-1.6-8.4-1.9-8.4-1.2zM296.5 585c1.1.5 3.1.8 4.5.8h2.5l-2.5-.8c-1.4-.4-3.4-.8-4.5-.8l-2-.1 2 .9zM321.6 584.7c-.9 1 12.4 4.4 13.8 3.6 1.1-.7-7.7-4.1-11-4.2-1.1-.1-2.4.2-2.8.6zM320.5 588.5c2 1.7 1.9 1.7-.8 1.2-5.2-.9-3.7 1.1 2.1 2.7 3.1.9 4.1 1.3 2.2 1-1.9-.3-5.1-.7-7-.9l-3.5-.5 4 1.4c3.7 1.2 3.8 1.4 1.5 1.8-1.4.3-.1.4 2.8.2 4-.2 6-.8 7.8-2.5 3.2-3 3-3.5-.8-4.2-1.8-.3-4.9-.9-6.8-1.2-3.4-.6-3.4-.6-1.5 1zm8 2.5l2 .9h-2c-1.1 0-2.9-.4-4-.9l-2-.9h2c1.1 0 2.9.4 4 .9zM345.5 588.6c-2.2.8-5.8 3-8 5l-4 3.6 3-.5c3.6-.6 8.5.2 8.5 1.4 0 .5-2.9.9-6.3.9-6.9 0-9.7 1.7-9.7 5.8 0 6.3 10.2 4.6 18.6-3.1 6.7-6.1 9.2-10.3 7.2-12.2-2.2-2.1-5.1-2.4-9.3-.9zM303.5 590c2.7 1.2 4.3 1.2 2.5 0-.8-.5-2.2-.9-3-.9-1 0-.8.3.5.9zM312.8 594.7c.6.2 1.8.2 2.5 0 .6-.3.1-.5-1.3-.5-1.4 0-1.9.2-1.2.5zM685.5 595.9c-8.1 3.7-14.8 13.5-16.1 23.4-.5 3.8-.3 4.8 1.6 6.7 1.9 1.9 2.9 2.1 6.8 1.6 8.9-1.2 16.4-8.9 19.7-20 2-6.6 1.9-9.2-.5-11.6-2.5-2.5-6.3-2.5-11.5-.1zM274.8 595.7c.7.3 1.6.2 1.9-.1.4-.3-.2-.6-1.3-.5-1.1 0-1.4.3-.6.6zM267.8 602c-4.9 2.6-5.6 4-2.1 4 3.8 0 7.3 1 7.3 2.1 0 .5-3.5.9-7.7.9h-7.8l-2.4 3.6c-2.8 4.1-2.2 6.2 2.3 7.7 6.1 2 24.1-11.1 23.4-17.2-.3-2.3-.8-2.6-4.8-2.8-2.9-.2-5.8.4-8.2 1.7zm-11.1 14.6c-.3.3-1.2.4-1.9.1-.8-.3-.5-.6.6-.6 1.1-.1 1.7.2 1.3.5zM252 605.1c0 .5.5.7 1 .4.6-.3 1-.8 1-1.1 0-.2-.4-.4-1-.4-.5 0-1 .5-1 1.1zM239.5 611.2c-2.1 1.2-3.5 2.8-3.5 4 0 .5 2.4.8 5.3.8 4.9 0 5.3-.2 6.4-3 1.1-3 1.1-3-2.5-3-2.1 0-4.6.6-5.7 1.2zM213.5 621.5c-2.9 1-4.5 2.2-4.5 3.7 0 .5 2.4.8 5.3.8 5.2 0 6.9-.9 9-4.5.7-1.4-5.8-1.4-9.8 0zM196.4 630.9c-1.1 1.2-.1 3.3 2.1 4.3 3 1.3 9.7-.3 13.5-3.3l2.5-2-8.8.3c-4.9.2-9 .5-9.3.7zM185.8 633.7c-2.9.7-2.1 2.3 1.2 2.3 2.2 0 2.8-.4 2.4-1.5-.6-1.6-.7-1.6-3.6-.8zM159.7 643c-.9 1.1-1.7 2.2-1.7 2.5 0 1.2 5.8.3 7.9-1.2 2.3-1.6 2.3-1.7.5-2.4-3.2-1.3-4.9-1-6.7 1.1zM199.5 650c-5.6 1.4-8 2.8-13.4 7.6-5.8 5.2-7.3 8-6 10.6 1.7 3.3 6.6 3.2 13.3-.1 6.3-3.1 15.6-11.7 15.6-14.4 0-3.1-4.8-4.9-9.5-3.7zM149.1 651.9c-1.2 1.2-2.2 1.6-2.9.9-.6-.6-1.5-.4-2.5.6-1.7 1.8-4.7 2.1-4.7.6s-2.9-1.2-4.6.5c-1.4 1.3-.6 1.5 7.2 1.5 7.9 0 9.2-.3 12.6-2.6 2.1-1.5 3.8-2.8 3.8-3 0-1.4-7.3-.1-8.9 1.5zM111.3 662.7l-2.5 2.8 5.5.3c4.6.2 6.5-.2 11.3-2.8l5.7-3h-8.7c-8.2 0-8.8.2-11.3 2.7zM136 664.2c-3.1.9-3.3 1.1-1.5 1.9 1.1.4 4 .8 6.5.8 3.5.1 4.2.4 3.2 1.3-.8.8-4.5 1.4-9.6 1.5-9.5.1-12.2 1.4-15.1 6.7-2.5 4.6-.9 6.6 5.2 6.6 6.8 0 18.8-7.3 22-13.3 1.5-2.9 1.4-3.2-.7-4.9-2.5-2-4.8-2.1-10-.6zM425.5 665.9c-4 1.8-13.1 10.7-15.5 15-4.1 7.7-2.6 12.1 4.1 12.1 5.5 0 10.5-2.8 16.7-9.4 8.3-8.7 10.7-16.7 5.6-18.6-3.7-1.4-6.4-1.2-10.9.9zM519.7 667.2c-8.1 2.1-19.7 16.4-19.7 24.4 0 4.1 2 5.6 7.1 5.6 9.3-.1 20.7-11.8 23.3-23.7 1.2-5.5-3.3-8.2-10.7-6.3zM61.6 672.1c-1.3 1.1-2.9 1.9-3.5 1.9-.6 0-1.1.4-1.1 1s3.8 1 9.5 1c8.4 0 9.5-.2 10.5-2 1.4-2.7.4-4.3-1.9-3-1 .5-2.1.7-2.4.3-1.6-1.5-8.9-1-11.1.8zM84 673v3h11.1c9.5 0 11 .2 10.5 1.5-.4 1.1.1 1.5 1.7 1.4 1.2 0 1.6-.3.9-.6-1.6-.6-.6-2.3 1.4-2.3 1.5 0 5.3-3.7 5.4-5.3 0-1.2-20.5-.8-21.7.4-.8.8-1.7.8-3.1 0-1.1-.6-3-1.1-4.1-1.1-1.7 0-2.1.6-2.1 3zM50 680.9c-1.5.4-2.6 1.5-2.8 2.9-.3 2.1 0 2.2 6.8 2.2 5.9 0 7.9-.5 11.6-2.6 2.4-1.4 4.4-2.8 4.4-3 0-.7-17.3-.3-20 .5z"/><path d="M77 683l-3.4 3h4.8c4.4 0 4.6.1 3.1 1.7-2.8 2.7-27 4.6-37.5 2.8-3.9-.6-4.9-.4-7.2 1.7-1.6 1.3-2.8 2.7-2.8 3.1 0 .4 7.9.7 17.5.7 11 0 17.5.4 17.5 1s2.6 1 5.9 1c5.1 0 6.5-.5 11.2-3.7 3-2 6-4.3 6.7-5 .8-.7 2.2-1.8 3.3-2.3 3-1.6 2.2-3-1.6-3-3.7 0-4.3-.8-2.3-2.8.9-.9-.2-1.2-5.3-1.2-5.6.1-6.8.4-9.9 3zM191.5 691.9c-9.5 5.5-9.2 6.1 2.7 6.1 10.2 0 10.5-.1 11.8-2.6 3.5-6.4-5.8-8.6-14.5-3.5z"/></svg>